<svg height="32" viewBox="0 0 318 32" width="318" xmlns="http://www.w3.org/2000/svg"><g fill="#1a1919" fill-rule="evenodd" transform="translate(0 1)"><path d="m5.664 6.56.064.032v3.743h.096c.768-2.111 2.655-3.839 5.407-3.839 3.584 0 4.672 1.791 4.672 5.184v6.751c0 2.048.128 4.16.64 5.759h-5.791c.479-1.503.543-3.359.543-5.567v-6.432c0-1.568-.64-2.303-2.336-2.303-1.312 0-2.303.351-3.04 1.023v7.712c0 2.208.064 4.064.544 5.567h-5.791c.512-1.599.64-3.711.64-5.759v-6.24c0-1.696-.608-3.2-1.312-4z"/><path d="m26.143 20.862v-6.271c-.352.513-.8.832-2.08 1.44-1.632.8-2.208 1.664-2.208 3.52 0 1.504.832 2.464 2.176 2.464 1.312 0 1.76-.481 2.112-1.153zm-1.504-14.366c4.48 0 6.144 1.76 6.144 5.407v7.648c0 1.376.544 1.792 1.632 1.792.191 0 .735-.096.927-.256-.095.512-.159.8-.287 1.12-.512 1.44-1.44 2.367-3.328 2.367-2.208 0-3.328-1.536-3.392-3.168h-.064c-.736 2.208-2.176 3.168-4.448 3.168-2.783 0-4.575-1.664-4.575-4.287 0-2.752 2.496-3.936 5.087-4.96 2.464-.992 3.808-1.696 3.808-3.456v-.351c0-1.953-.608-2.945-2.432-2.945-1.152 0-1.568.513-1.824 1.632-.352 1.664-1.024 2.273-2.143 2.273-.993 0-1.889-.672-1.889-1.888 0-2.433 3.329-4.096 6.784-4.096z"/><path d="m43.327 22.303c-.608 1.376-2.08 2.271-4.16 2.271-3.552 0-4.928-1.792-4.928-5.055v-10.207h-1.695v-.128l6.207-6.368.096.032v4.032h4.416l-.448 2.432h-3.968v9.471c0 1.823.768 2.528 2.4 2.528 1.248 0 1.92-.193 2.464-.48-.096.608-.16.96-.384 1.472"/><path d="m49.311 6.752v11.967c0 1.792.704 2.784 2.432 2.784 1.471 0 2.56-.481 3.199-1.313v-8.094c0-1.761-.191-3.265-.735-4.8l5.343-.544v12.255c0 2.687.288 3.903.704 5.183h-5.184v-3.456h-.064c-.735 2.208-2.175 3.808-5.151 3.808-3.776 0-5.152-2.271-5.152-5.663v-6.783c0-1.761-.16-3.265-.736-4.8z"/><path d="m66.911 10.943c.768-3.2 2.239-4.447 4.191-4.447 1.793 0 2.688.928 2.688 2.4 0 1.343-.736 2.399-2.143 2.399-.8 0-1.28-.352-1.632-.703-.416-.353-.672-.736-1.056-.736-.928 0-1.952 1.536-1.952 4.191v4.288c0 2.144.16 4.256.576 5.855h-5.792c.512-1.599.64-3.711.64-5.759v-6.24c0-1.696-.608-3.2-1.312-4l5.664-1.631.064.032v4.351z"/><path d="m77.919 13.472 5.791-.513c-.064-2.752-.48-4.384-2.4-4.384-1.952 0-3.104 1.569-3.391 4.897zm3.455 11.102c-4.415 0-8.095-2.943-8.095-8.575 0-5.727 3.488-9.535 8.191-9.535 4.48 0 6.56 2.848 6.56 8.191h-10.175v.512c0 4.319 2.239 6.016 5.279 6.016 2.752 0 4-1.12 4.8-1.92l.096.288c-.736 2.592-2.816 5.023-6.656 5.023z"/><path d="m101.374 24.574c-4.64 0-7.775-3.263-7.775-8.671 0-6.047 4.095-9.407 8.351-9.407 3.968 0 5.632 1.76 5.632 3.583 0 1.313-.769 2.145-2.112 2.145-1.184 0-1.76-.769-1.984-2.273-.16-1.183-.576-1.407-1.696-1.407-2.24 0-3.616 2.367-3.616 6.239 0 4.48 1.92 6.335 4.928 6.335 1.888 0 3.616-.575 4.607-1.567l.064.256c-.511 2.08-2.431 4.767-6.399 4.767"/><path d="m120.414 15.615c0-5.664-1.344-7.008-3.584-7.008-2.112 0-3.328 1.537-3.328 6.848 0 5.663 1.344 7.008 3.584 7.008 2.112 0 3.328-1.536 3.328-6.848zm5.024-.095c0 5.567-4.032 9.054-8.352 9.054-4.384 0-8.607-3.296-8.607-9.023 0-5.568 4.031-9.055 8.351-9.055 4.383 0 8.608 3.295 8.608 9.024z"/><path d="m131.774 6.56.064.032v3.743h.096c.768-2.111 2.464-3.839 5.215-3.839 3.136 0 4.192 1.376 4.416 3.839h.032c.768-2.111 2.432-3.839 5.184-3.839 3.584 0 4.511 1.791 4.511 5.184v6.751c0 2.048.128 4.16.641 5.759h-5.792c.48-1.503.544-3.359.544-5.567v-6.432c0-1.568-.48-2.303-2.176-2.303-1.312 0-2.112.256-2.848 1.023v7.52c0 2.048.128 4.16.64 5.759h-5.791c.48-1.503.544-3.359.544-5.567v-6.432c0-1.568-.48-2.303-2.176-2.303-1.312 0-2.016.223-2.848 1.023v7.712c0 2.208.064 4.064.544 5.567h-5.792c.512-1.599.64-3.711.64-5.759v-6.24c0-1.696-.608-3.2-1.312-4z"/><path d="m158.238 6.56.064.032v3.743h.096c.768-2.111 2.464-3.839 5.215-3.839 3.136 0 4.192 1.376 4.416 3.839h.032c.768-2.111 2.432-3.839 5.184-3.839 3.584 0 4.511 1.791 4.511 5.184v6.751c0 2.048.128 4.16.64 5.759h-5.791c.48-1.503.544-3.359.544-5.567v-6.432c0-1.568-.48-2.303-2.176-2.303-1.312 0-2.112.256-2.848 1.023v7.52c0 2.048.128 4.16.64 5.759h-5.791c.48-1.503.544-3.359.544-5.567v-6.432c0-1.568-.48-2.303-2.176-2.303-1.312 0-2.016.223-2.848 1.023v7.712c0 2.208.064 4.064.544 5.567h-5.792c.512-1.599.64-3.711.64-5.759v-6.24c0-1.696-.608-3.2-1.312-4z"/><path d="m184.67 6.752v11.967c0 1.792.704 2.784 2.432 2.784 1.471 0 2.559-.481 3.199-1.313v-8.094c0-1.761-.192-3.265-.736-4.8l5.344-.544v12.255c0 2.687.288 3.903.704 5.183h-5.184v-3.456h-.064c-.736 2.208-2.176 3.808-5.151 3.808-3.776 0-5.152-2.271-5.152-5.663v-6.783c0-1.761-.16-3.265-.736-4.8z"/><path d="m202.142 6.56.064.032v3.743h.096c.768-2.111 2.656-3.839 5.407-3.839 3.584 0 4.672 1.791 4.672 5.184v6.751c0 2.048.128 4.16.64 5.759h-5.792c.48-1.503.544-3.359.544-5.567v-6.432c0-1.568-.64-2.303-2.335-2.303-1.313 0-2.304.351-3.041 1.023v7.712c0 2.208.064 4.064.544 5.567h-5.791c.512-1.599.64-3.711.64-5.759v-6.24c0-1.696-.608-3.2-1.312-4z"/><path d="m214.333 2.752c0-1.536 1.152-2.752 2.784-2.752 1.664 0 2.816 1.216 2.816 2.752 0 1.504-1.152 2.752-2.816 2.752-1.632 0-2.784-1.248-2.784-2.752zm5.28 15.679c0 2.048.128 4.16.64 5.759h-5.92c.513-1.599.641-3.711.641-5.759v-6.24c0-1.696-.608-3.2-1.312-4l6.015-1.631.064.032-.128 4.319z"/><path d="m229.373 24.574c-4.64 0-7.776-3.263-7.776-8.671 0-6.047 4.096-9.407 8.352-9.407 3.968 0 5.631 1.76 5.631 3.583 0 1.313-.768 2.145-2.112 2.145-1.184 0-1.76-.769-1.984-2.273-.159-1.183-.575-1.407-1.695-1.407-2.24 0-3.616 2.367-3.616 6.239 0 4.48 1.92 6.335 4.928 6.335 1.887 0 3.615-.575 4.607-1.567l.064.256c-.512 2.08-2.432 4.767-6.399 4.767"/><path d="m245.18 20.862v-6.271c-.352.513-.8.832-2.08 1.44-1.632.8-2.207 1.664-2.207 3.52 0 1.504.832 2.464 2.175 2.464 1.312 0 1.76-.481 2.112-1.153zm-1.504-14.366c4.48 0 6.144 1.76 6.144 5.407v7.648c0 1.376.544 1.792 1.632 1.792.192 0 .736-.096.927-.256-.095.512-.159.8-.287 1.12-.512 1.44-1.44 2.367-3.328 2.367-2.208 0-3.328-1.536-3.392-3.168h-.064c-.736 2.208-2.176 3.168-4.448 3.168-2.783 0-4.575-1.664-4.575-4.287 0-2.752 2.496-3.936 5.088-4.96 2.463-.992 3.807-1.696 3.807-3.456v-.351c0-1.953-.608-2.945-2.432-2.945-1.152 0-1.568.513-1.824 1.632-.352 1.664-1.024 2.273-2.143 2.273-.992 0-1.888-.672-1.888-1.888 0-2.433 3.328-4.096 6.783-4.096z"/><path d="m262.364 22.303c-.608 1.376-2.08 2.271-4.16 2.271-3.552 0-4.928-1.792-4.928-5.055v-10.207h-1.695v-.128l6.207-6.368.096.032v4.032h4.416l-.448 2.432h-3.968v9.471c0 1.823.768 2.528 2.4 2.528 1.248 0 1.92-.193 2.464-.48-.096.608-.16.96-.384 1.472"/><path d="m263.388 2.752c0-1.536 1.152-2.752 2.784-2.752 1.664 0 2.816 1.216 2.816 2.752 0 1.504-1.152 2.752-2.816 2.752-1.632 0-2.784-1.248-2.784-2.752zm5.28 15.679c0 2.048.128 4.16.64 5.759h-5.92c.512-1.599.64-3.711.64-5.759v-6.24c0-1.696-.608-3.2-1.312-4l6.016-1.631.064.032-.128 4.319z"/><path d="m282.587 15.615c0-5.664-1.344-7.008-3.584-7.008-2.111 0-3.328 1.537-3.328 6.848 0 5.663 1.345 7.008 3.584 7.008 2.112 0 3.328-1.536 3.328-6.848zm5.024-.095c0 5.567-4.032 9.054-8.352 9.054-4.384 0-8.607-3.296-8.607-9.023 0-5.568 4.032-9.055 8.351-9.055 4.384 0 8.608 3.295 8.608 9.024z"/><path d="m293.947 6.56.064.032v3.743h.096c.768-2.111 2.656-3.839 5.408-3.839 3.584 0 4.672 1.791 4.672 5.184v6.751c0 2.048.127 4.16.64 5.759h-5.792c.48-1.503.544-3.359.544-5.567v-6.432c0-1.568-.64-2.303-2.336-2.303-1.312 0-2.304.351-3.04 1.023v7.712c0 2.208.064 4.064.544 5.567h-5.791c.512-1.599.64-3.711.64-5.759v-6.24c0-1.696-.608-3.2-1.312-4z"/><path d="m316.506 7.328.161 3.648h-.097c-1.279-1.376-2.559-2.401-4.607-2.401-1.376 0-2.272.513-2.272 1.76 0 1.248.64 1.761 3.424 2.944 2.944 1.216 4.767 2.592 4.767 5.44 0 2.975-1.568 5.855-6.431 5.855-2.048 0-4-.416-5.472-1.216l-.192-4.383h.16c1.376 1.759 3.36 3.519 5.472 3.519s2.624-.767 2.624-2.143c0-1.537-.8-1.953-3.488-3.104-2.816-1.183-4.703-2.528-4.703-5.439 0-3.328 2.591-5.312 6.015-5.312 2.272 0 3.551.352 4.639.832"/></g></svg>